<?xml version="1.0" encoding="utf-8"?>
<!-- Generator: Adobe Illustrator 22.0.0, SVG Export Plug-In . SVG Version: 6.00 Build 0)  -->
<svg version="1.1" id="Layer_1" xmlns="http://www.w3.org/2000/svg" xmlns:xlink="http://www.w3.org/1999/xlink" x="0px" y="0px"
	 viewBox="0 0 1920 1080" style="enable-background:new 0 0 1920 1080;" xml:space="preserve">
<style type="text/css">
	.st0{fill:#FFFFFF;}
	.st1{fill:#FFFFFF;stroke:#FFFFFF;stroke-width:6;stroke-miterlimit:10;}
	.st2{fill:none;stroke:#FFFFFF;stroke-width:6;stroke-miterlimit:10;}
	.st3{fill:none;}
	.st4{font-family:'GrandHotel-Regular';}
	.st5{font-size:140px;}
</style>
<g>
	<polygon class="st0" points="530.3,432.6 530.3,246.1 693,152.8 855.7,246.1 855.7,432.6 693,525.9 	"/>
	<path class="st0" d="M693,156.3l159.7,91.6v183L693,522.4l-159.7-91.6v-183L693,156.3 M693,149.3l-165.7,95v190l165.7,95l165.7-95
		v-190L693,149.3L693,149.3z"/>
</g>
<g>
	<circle class="st0" cx="693.5" cy="149.5" r="9.5"/>
	<path class="st0" d="M693.5,143c3.6,0,6.5,2.9,6.5,6.5s-2.9,6.5-6.5,6.5s-6.5-2.9-6.5-6.5S689.9,143,693.5,143 M693.5,137
		c-6.9,0-12.5,5.6-12.5,12.5s5.6,12.5,12.5,12.5s12.5-5.6,12.5-12.5S700.4,137,693.5,137L693.5,137z"/>
</g>
<g>
	<circle class="st0" cx="858.5" cy="244.5" r="9.5"/>
	<path class="st0" d="M858.5,238c3.6,0,6.5,2.9,6.5,6.5s-2.9,6.5-6.5,6.5s-6.5-2.9-6.5-6.5S854.9,238,858.5,238 M858.5,232
		c-6.9,0-12.5,5.6-12.5,12.5s5.6,12.5,12.5,12.5s12.5-5.6,12.5-12.5S865.4,232,858.5,232L858.5,232z"/>
</g>
<g>
	<circle class="st0" cx="858.5" cy="432.5" r="9.5"/>
	<path class="st0" d="M858.5,426c3.6,0,6.5,2.9,6.5,6.5s-2.9,6.5-6.5,6.5s-6.5-2.9-6.5-6.5S854.9,426,858.5,426 M858.5,420
		c-6.9,0-12.5,5.6-12.5,12.5s5.6,12.5,12.5,12.5s12.5-5.6,12.5-12.5S865.4,420,858.5,420L858.5,420z"/>
</g>
<g>
	<circle class="st0" cx="692.5" cy="529.5" r="9.5"/>
	<path class="st0" d="M692.5,523c3.6,0,6.5,2.9,6.5,6.5s-2.9,6.5-6.5,6.5s-6.5-2.9-6.5-6.5S688.9,523,692.5,523 M692.5,517
		c-6.9,0-12.5,5.6-12.5,12.5s5.6,12.5,12.5,12.5s12.5-5.6,12.5-12.5S699.4,517,692.5,517L692.5,517z"/>
</g>
<g>
	<circle class="st0" cx="527.5" cy="438.5" r="9.5"/>
	<path class="st0" d="M527.5,432c3.6,0,6.5,2.9,6.5,6.5s-2.9,6.5-6.5,6.5s-6.5-2.9-6.5-6.5S523.9,432,527.5,432 M527.5,426
		c-6.9,0-12.5,5.6-12.5,12.5s5.6,12.5,12.5,12.5s12.5-5.6,12.5-12.5S534.4,426,527.5,426L527.5,426z"/>
</g>
<path class="st1" d="M693,149"/>
<g>
	<circle class="st0" cx="527.5" cy="244.5" r="9.5"/>
	<path class="st0" d="M527.5,238c3.6,0,6.5,2.9,6.5,6.5s-2.9,6.5-6.5,6.5s-6.5-2.9-6.5-6.5S523.9,238,527.5,238 M527.5,232
		c-6.9,0-12.5,5.6-12.5,12.5s5.6,12.5,12.5,12.5s12.5-5.6,12.5-12.5S534.4,232,527.5,232L527.5,232z"/>
</g>
<path class="st2" d="M693,149c0,0-106,161,0,380"/>
<path class="st2" d="M528,244c0,0,225,12,331,188"/>
<path class="st2" d="M528,438c0,0,216-29,331-194"/>
<rect x="885.1" y="283.1" class="st3" width="441.9" height="114.9"/>
<text transform="matrix(1 0 0 1 885.1343 376.2007)" class="st0 st4 st5">tollblocks</text>
<polygon class="st3" points="100,931 92.5,931 92.5,931 100,931 "/>
<polygon class="st3" points="455.5,958 458.5,958 458.5,958 455.5,958 "/>
</svg>
