<?xml version="1.0" encoding="utf-8"?>
<!-- Generator: Adobe Illustrator 22.0.0, SVG Export Plug-In . SVG Version: 6.00 Build 0)  -->
<svg version="1.1" id="Layer_1" xmlns="http://www.w3.org/2000/svg" xmlns:xlink="http://www.w3.org/1999/xlink" x="0px" y="0px"
	 viewBox="0 0 804 424" style="enable-background:new 0 0 804 424;" xml:space="preserve">
<style type="text/css">
	.st0{fill:#FFFFFF;}
	.st1{fill:#FFFFFF;stroke:#000000;stroke-width:6;stroke-miterlimit:10;}
	.st2{fill:none;stroke:#000000;stroke-width:6;stroke-miterlimit:10;}
	.st3{fill:none;}
	.st4{enable-background:new    ;}
</style>
<g>
	<g>
		<polygon class="st0" points="20.3,304.6 20.3,118.1 183,24.8 345.7,118.1 345.7,304.6 183,397.9 		"/>
		<path d="M183,28.3l159.7,91.6v183L183,394.4L23.3,302.8v-183L183,28.3 M183,21.3l-165.7,95v190l165.7,95l165.7-95v-190L183,21.3
			L183,21.3z"/>
	</g>
	<g>
		<circle cx="183.5" cy="21.5" r="9.5"/>
		<path d="M183.5,15c3.6,0,6.5,2.9,6.5,6.5s-2.9,6.5-6.5,6.5s-6.5-2.9-6.5-6.5S179.9,15,183.5,15 M183.5,9
			c-6.9,0-12.5,5.6-12.5,12.5S176.6,34,183.5,34S196,28.4,196,21.5S190.4,9,183.5,9L183.5,9z"/>
	</g>
	<g>
		<circle cx="348.5" cy="116.5" r="9.5"/>
		<path d="M348.5,110c3.6,0,6.5,2.9,6.5,6.5s-2.9,6.5-6.5,6.5s-6.5-2.9-6.5-6.5S344.9,110,348.5,110 M348.5,104
			c-6.9,0-12.5,5.6-12.5,12.5s5.6,12.5,12.5,12.5s12.5-5.6,12.5-12.5S355.4,104,348.5,104L348.5,104z"/>
	</g>
	<g>
		<circle cx="348.5" cy="304.5" r="9.5"/>
		<path d="M348.5,298c3.6,0,6.5,2.9,6.5,6.5s-2.9,6.5-6.5,6.5s-6.5-2.9-6.5-6.5S344.9,298,348.5,298 M348.5,292
			c-6.9,0-12.5,5.6-12.5,12.5s5.6,12.5,12.5,12.5s12.5-5.6,12.5-12.5S355.4,292,348.5,292L348.5,292z"/>
	</g>
	<g>
		<circle cx="182.5" cy="401.5" r="9.5"/>
		<path d="M182.5,395c3.6,0,6.5,2.9,6.5,6.5s-2.9,6.5-6.5,6.5s-6.5-2.9-6.5-6.5S178.9,395,182.5,395 M182.5,389
			c-6.9,0-12.5,5.6-12.5,12.5s5.6,12.5,12.5,12.5s12.5-5.6,12.5-12.5S189.4,389,182.5,389L182.5,389z"/>
	</g>
	<g>
		<circle cx="17.5" cy="310.5" r="9.5"/>
		<path d="M17.5,304c3.6,0,6.5,2.9,6.5,6.5s-2.9,6.5-6.5,6.5s-6.5-2.9-6.5-6.5S13.9,304,17.5,304 M17.5,298
			C10.6,298,5,303.6,5,310.5S10.6,323,17.5,323S30,317.4,30,310.5S24.4,298,17.5,298L17.5,298z"/>
	</g>
	<path class="st1" d="M183,21"/>
	<g>
		<circle cx="17.5" cy="116.5" r="9.5"/>
		<path d="M17.5,110c3.6,0,6.5,2.9,6.5,6.5s-2.9,6.5-6.5,6.5s-6.5-2.9-6.5-6.5S13.9,110,17.5,110 M17.5,104
			C10.6,104,5,109.6,5,116.5S10.6,129,17.5,129S30,123.4,30,116.5S24.4,104,17.5,104L17.5,104z"/>
	</g>
	<path class="st2" d="M183,21c0,0-106,161,0,380"/>
	<path class="st2" d="M18,116c0,0,225,12,331,188"/>
	<path class="st2" d="M18,310c0,0,216-29,331-194"/>
	<rect x="375.1" y="155.1" class="st3" width="441.9" height="114.9"/>
	<g class="st4">
		<path d="M367.4,182.4c1,0.1,2.2,0.2,3.5,0.2c1.1,0.1,2.4,0.1,4,0.2c1.5,0,3.3,0.1,5.2,0.1v-23.7c0-1-0.1-1.8-0.2-2.4
			c-0.2-0.6-0.3-1.1-0.5-1.4c-0.2-0.3-0.3-0.6-0.5-0.8c-0.2-0.2-0.2-0.4-0.2-0.6c0-0.3,0.1-0.5,0.4-0.7c0.3-0.2,0.6-0.3,1.1-0.5
			c0.5-0.1,0.9-0.2,1.5-0.3c0.5-0.1,1-0.1,1.5-0.1c2.3,0,4.2,0.6,5.5,1.8c1.3,1.2,2,2.7,2,4.3V183c4.3,0,8.8,0,13.6-0.1
			c4.8-0.1,9.5-0.3,14.3-0.5c0.6-0.7,1.2-0.9,1.5-0.8c0.4,0.2,0.6,0.6,0.8,1.3c0.1,0.7,0.1,1.5,0,2.5c-0.1,1-0.3,2-0.5,2.9
			c-0.3,0.9-0.6,1.7-1.1,2.4s-1,1-1.6,1c-5.6,0.1-10.6,0.2-14.9,0.2c-4.3,0-8.3,0-12.1,0v44.4c0,2.3,0.4,3.9,1.3,4.9
			c0.9,1,2,1.5,3.5,1.5c1.4,0,2.6-0.5,3.7-1.5c1-1,1.9-2.3,2.7-3.8s1.4-3.1,1.8-4.9c0.5-1.8,0.9-3.4,1.2-5c0.3-1.5,0.7-2.5,1.4-3.2
			c0.6-0.7,1.3-1,2-1c0.5,0,1.1,0.2,1.7,0.5c0.6,0.3,1.1,0.8,1.6,1.3s0.9,1.2,1.2,1.8c0.3,0.7,0.4,1.4,0.4,2.1c0,0.1,0,0.2,0,0.3
			s0,0.3-0.1,0.6c-0.6,2.3-1.4,4.8-2.4,7.3c-1,2.6-2.3,4.9-4,7c-1.6,2.1-3.5,3.9-5.8,5.3c-2.2,1.4-4.9,2.1-7.9,2.1
			c-1.9,0-3.6-0.3-5.2-0.9c-1.6-0.6-2.9-1.5-4.1-2.7c-1.1-1.3-2-2.9-2.7-4.8c-0.6-2-1-4.3-1-7.1v-44.5c-1.5,0-2.9,0-4.1,0
			c-1.2,0-2.2-0.1-3-0.1c-1,0-1.8-0.1-2.5-0.1c-1.1,0-2.1-0.5-2.9-1.5c-0.8-1-1.4-2.1-1.8-3.2c-0.3-1.2-0.4-2.3-0.1-3.2
			C365.8,182.9,366.4,182.4,367.4,182.4z"/>
		<path d="M456.6,225.1c0.1-0.5,0.4-1,0.9-1.4c0.5-0.4,1.1-0.6,1.8-0.8s1.4-0.1,2.2,0s1.4,0.4,2,0.9s1,1.1,1.2,2
			c0.3,0.8,0.2,1.9-0.1,3.2c-0.4,1.9-1.1,3.7-2,5.4c-0.9,1.7-2.1,3.1-3.5,4.4c-1.4,1.3-3.1,2.3-5,3c-1.9,0.7-4.1,1.1-6.4,1.1
			c-1.3,0-2.5-0.1-3.6-0.2c-1.1-0.1-2.2-0.4-3.2-0.8c-1.7,3-4,5.4-6.7,7.3s-6.1,2.8-10.1,2.8c-3.6,0-6.6-0.7-9.2-2.1
			c-2.6-1.4-4.7-3.3-6.4-5.7c-1.7-2.4-2.9-5.2-3.7-8.3c-0.8-3.1-1.2-6.5-1.2-10c0-5.1,0.6-9.8,1.8-13.8c1.2-4.1,2.6-7.5,4.2-10.4
			c1.6-2.8,3.2-5,4.8-6.5s2.7-2.3,3.5-2.3c0.9,0,1.7,0.4,2.5,1.2c0.8,0.8,1.3,1.7,1.6,2.8c0.3,1.1,0.4,2.2,0.3,3.2
			c-0.2,1.1-0.7,1.9-1.6,2.5c-0.5,0.9-1.2,1.9-1.9,3c-0.8,1.1-1.5,2.6-2.1,4.3c-0.7,1.7-1.2,3.8-1.7,6.3c-0.5,2.5-0.7,5.4-0.7,8.9
			c0,3,0.3,5.5,0.8,7.7c0.5,2.2,1.3,4,2.2,5.5c0.9,1.5,2,2.6,3.2,3.3c1.2,0.7,2.5,1.1,3.9,1.1c2,0,3.7-0.5,5-1.5
			c1.3-1,2.4-2.3,3.3-3.9c-3.3-2.8-5.8-6.4-7.5-10.8c-1.7-4.4-2.6-9.1-2.6-14.1c0-2.2,0.2-4.3,0.7-6.3s1.2-3.7,2.1-5.2
			c0.9-1.5,2.1-2.7,3.5-3.6c1.4-0.9,3.1-1.3,4.9-1.3c1.6,0,3.2,0.6,4.6,1.8c1.5,1.2,2.7,2.8,3.8,4.9c1.1,2.1,1.9,4.6,2.6,7.5
			s0.9,6,0.9,9.4c0,2.6-0.2,5.2-0.5,7.7c-0.3,2.6-0.8,5-1.5,7.4c0.5,0.2,1,0.3,1.4,0.3c0.4,0,0.9,0,1.4,0c1.5,0,2.8-0.3,4-0.8
			c1.2-0.5,2.2-1.3,3-2.2c0.8-0.9,1.5-2,2-3.2C456,227.8,456.4,226.5,456.6,225.1z M429.9,212.1c0,3.1,0.5,6.1,1.5,9
			c1,2.8,2.3,5.3,3.9,7.4c0.3-2.2,0.4-4.4,0.4-6.4c0-2.4,0-4.6-0.1-6.6c-0.1-2-0.2-3.8-0.5-5.2c-0.3-1.5-0.6-2.6-1-3.5
			c-0.4-0.8-1-1.3-1.7-1.3C430.7,205.5,429.9,207.7,429.9,212.1z"/>
		<path d="M487.2,227.9c0.3-1.4,0.7-2.4,1.3-3s1.2-1,1.8-1s1.3,0.1,2,0.5c0.7,0.4,1.3,0.9,1.8,1.5c0.5,0.6,0.9,1.4,1.1,2.2
			c0.3,0.8,0.3,1.6,0.1,2.4c-0.6,1.9-1.6,4.1-2.7,6.6c-1.2,2.5-2.7,4.9-4.5,7.1c-1.8,2.2-4,4.1-6.4,5.7c-2.5,1.5-5.3,2.3-8.5,2.3
			c-2.7,0-5.1-0.4-7.1-1.3s-3.8-2.1-5.2-3.8s-2.4-3.6-3.1-5.8s-1.1-4.8-1.1-7.6v-63.7c0-2.6,0.3-5,1-7.2c0.7-2.2,1.6-4.1,2.7-5.7
			s2.5-2.8,4.1-3.7c1.5-0.9,3.2-1.3,4.9-1.3c2.1,0,3.8,0.4,5.2,1.1c1.4,0.8,2.6,1.7,3.5,3c0.9,1.2,1.6,2.6,2.2,4.2
			c0.5,1.6,0.9,3.2,1.1,4.9c0.2,1.7,0.4,3.3,0.4,4.9c0,1.6,0.1,3.1,0.1,4.4c0,3.4-0.3,7-1,10.8c-0.6,3.8-1.4,7.5-2.4,11.1
			c-1,3.6-2.1,7.1-3.2,10.5s-2.3,6.3-3.3,8.9s-2,4.7-2.9,6.4s-1.4,2.6-1.7,2.9v8.1c0,2.8,0.6,5.1,1.8,6.9c1.2,1.8,3.1,2.7,5.7,2.7
			c1.6,0,3.1-0.5,4.5-1.5c1.4-1,2.6-2.2,3.7-3.7c1.1-1.5,2-3.1,2.7-4.9C486.3,231.1,486.9,229.4,487.2,227.9z M467.3,206.8
			c0.5-1,1-2.2,1.5-3.9c0.5-1.6,0.9-3.4,1.4-5.4c0.4-2,0.8-4,1.2-6.2c0.4-2.1,0.7-4.2,1-6.3s0.5-4,0.6-5.8c0.2-1.8,0.2-3.3,0.2-4.6
			c0-4.6-0.3-8.1-1-10.2c-0.7-2.2-1.6-3.2-2.7-3.2c-0.4,0-0.7,0.2-1,0.5c-0.3,0.4-0.5,0.8-0.7,1.4c-0.2,0.6-0.3,1.2-0.4,1.8
			c-0.1,0.7-0.1,1.3-0.1,1.8V206.8z"/>
		<path d="M518,227.9c0.3-1.4,0.7-2.4,1.3-3s1.2-1,1.8-1s1.3,0.1,2,0.5c0.7,0.4,1.3,0.9,1.8,1.5c0.5,0.6,0.9,1.4,1.1,2.2
			c0.3,0.8,0.3,1.6,0.1,2.4c-0.6,1.9-1.6,4.1-2.7,6.6c-1.2,2.5-2.7,4.9-4.5,7.1c-1.8,2.2-4,4.1-6.4,5.7c-2.5,1.5-5.3,2.3-8.5,2.3
			c-2.7,0-5.1-0.4-7.1-1.3s-3.8-2.1-5.2-3.8s-2.4-3.6-3.1-5.8s-1.1-4.8-1.1-7.6v-63.7c0-2.6,0.3-5,1-7.2c0.7-2.2,1.6-4.1,2.7-5.7
			s2.5-2.8,4.1-3.7c1.5-0.9,3.2-1.3,4.9-1.3c2.1,0,3.8,0.4,5.2,1.1c1.4,0.8,2.6,1.7,3.5,3c0.9,1.2,1.6,2.6,2.2,4.2
			c0.5,1.6,0.9,3.2,1.1,4.9c0.2,1.7,0.4,3.3,0.4,4.9c0,1.6,0.1,3.1,0.1,4.4c0,3.4-0.3,7-1,10.8c-0.6,3.8-1.4,7.5-2.4,11.1
			c-1,3.6-2.1,7.1-3.2,10.5s-2.3,6.3-3.3,8.9s-2,4.7-2.9,6.4s-1.4,2.6-1.7,2.9v8.1c0,2.8,0.6,5.1,1.8,6.9c1.2,1.8,3.1,2.7,5.7,2.7
			c1.6,0,3.1-0.5,4.5-1.5c1.4-1,2.6-2.2,3.7-3.7c1.1-1.5,2-3.1,2.7-4.9C517.2,231.1,517.7,229.4,518,227.9z M498.1,206.8
			c0.5-1,1-2.2,1.5-3.9c0.5-1.6,0.9-3.4,1.4-5.4c0.4-2,0.8-4,1.2-6.2c0.4-2.1,0.7-4.2,1-6.3s0.5-4,0.6-5.8c0.2-1.8,0.2-3.3,0.2-4.6
			c0-4.6-0.3-8.1-1-10.2c-0.7-2.2-1.6-3.2-2.7-3.2c-0.4,0-0.7,0.2-1,0.5c-0.3,0.4-0.5,0.8-0.7,1.4c-0.2,0.6-0.3,1.2-0.4,1.8
			c-0.1,0.7-0.1,1.3-0.1,1.8V206.8z"/>
		<path d="M533.6,212.5c0-2.8,0.3-5.3,0.9-7.3c0.6-2.1,1.5-3.8,2.6-5.1c1.1-1.3,2.4-2.3,3.8-3c1.4-0.6,3-1,4.6-1
			c1.9,0,3.7,0.5,5.5,1.4c1.8,0.9,3.4,2.3,4.8,4.2c1.4,1.9,2.5,4.2,3.3,7.1s1.3,6.3,1.3,10.2c0,2.7-0.2,5.5-0.5,8.2
			c-0.3,2.7-0.9,5.3-1.6,7.8c0.5,0.2,1,0.3,1.5,0.3c0.5,0,1,0,1.5,0c1.5,0,2.8-0.3,4-0.8s2.2-1.3,3-2.2c0.8-0.9,1.5-2,2-3.2
			c0.5-1.2,0.9-2.5,1.1-3.9c0.1-0.5,0.4-1,0.9-1.4c0.5-0.4,1.1-0.6,1.8-0.8s1.4-0.1,2.2,0s1.4,0.4,1.9,0.9s0.9,1.1,1.2,2
			c0.3,0.8,0.2,1.9,0,3.2c-0.4,1.9-1.1,3.7-2,5.4c-0.9,1.7-2.1,3.1-3.5,4.4c-1.4,1.3-3.1,2.3-5,3c-1.9,0.7-4.1,1.1-6.4,1.1
			c-1.3,0-2.5-0.1-3.7-0.2c-1.2-0.1-2.3-0.4-3.5-0.8c-1.7,3-4,5.4-6.8,7.3c-2.8,1.8-6.2,2.8-10.3,2.8c-3.2,0-6.1-0.6-8.5-1.7
			c-2.4-1.1-4.5-2.7-6.2-4.8c-1.7-2.1-2.9-4.5-3.8-7.4s-1.3-6-1.3-9.4v-66.8c0-1-0.1-1.8-0.2-2.4c-0.2-0.6-0.3-1.1-0.5-1.4
			s-0.3-0.6-0.5-0.8s-0.2-0.4-0.2-0.6c0-0.3,0.1-0.5,0.4-0.7c0.3-0.2,0.6-0.3,1.1-0.5c0.5-0.1,0.9-0.2,1.5-0.3s1-0.1,1.5-0.1
			c2.3,0,4.2,0.6,5.5,1.8c1.3,1.2,2,2.7,2,4.3v65.6c0,2.3,0.2,4.5,0.6,6.4c0.4,2,1,3.7,1.8,5.1s1.9,2.6,3.1,3.3
			c1.3,0.8,2.7,1.2,4.4,1.2c1.7,0,3.2-0.4,4.4-1.3s2.3-2.1,3.1-3.6c-2-1.4-3.8-3.1-5.4-5c-1.6-1.9-2.9-3.9-4-6.2
			c-1.1-2.2-2-4.5-2.6-7C533.9,217.4,533.6,215,533.6,212.5z M542.3,212c0,3.4,0.6,6.6,1.8,9.6s2.8,5.6,4.9,7.8
			c0.3-1.6,0.5-3.3,0.5-4.9c0.1-1.6,0.1-3.1,0.1-4.4c0-4.7-0.5-8.3-1.5-10.9c-1-2.6-2.1-3.8-3.4-3.8c-0.9,0-1.6,0.6-1.9,1.8
			C542.5,208.4,542.3,210,542.3,212z"/>
		<path d="M601.7,227.9c0.3-1.4,0.7-2.4,1.3-3s1.2-1,1.8-1s1.3,0.1,2,0.5c0.7,0.4,1.3,0.9,1.8,1.5c0.5,0.6,0.9,1.4,1.1,2.2
			c0.3,0.8,0.3,1.6,0.1,2.4c-0.6,1.9-1.6,4.1-2.7,6.6c-1.2,2.5-2.7,4.9-4.5,7.1c-1.8,2.2-4,4.1-6.4,5.7c-2.5,1.5-5.3,2.3-8.5,2.3
			c-2.7,0-5.1-0.4-7.1-1.3s-3.8-2.1-5.2-3.8s-2.4-3.6-3.1-5.8s-1.1-4.8-1.1-7.6v-63.7c0-2.6,0.3-5,1-7.2c0.7-2.2,1.6-4.1,2.7-5.7
			s2.5-2.8,4.1-3.7c1.5-0.9,3.2-1.3,4.9-1.3c2.1,0,3.8,0.4,5.2,1.1c1.4,0.8,2.6,1.7,3.5,3c0.9,1.2,1.6,2.6,2.2,4.2
			c0.5,1.6,0.9,3.2,1.1,4.9c0.2,1.7,0.4,3.3,0.4,4.9c0,1.6,0.1,3.1,0.1,4.4c0,3.4-0.3,7-1,10.8c-0.6,3.8-1.4,7.5-2.4,11.1
			c-1,3.6-2.1,7.1-3.2,10.5s-2.3,6.3-3.3,8.9s-2,4.7-2.9,6.4s-1.4,2.6-1.7,2.9v8.1c0,2.8,0.6,5.1,1.8,6.9c1.2,1.8,3.1,2.7,5.7,2.7
			c1.6,0,3.1-0.5,4.5-1.5c1.4-1,2.6-2.2,3.7-3.7c1.1-1.5,2-3.1,2.7-4.9C600.9,231.1,601.4,229.4,601.7,227.9z M581.9,206.8
			c0.5-1,1-2.2,1.5-3.9c0.5-1.6,0.9-3.4,1.4-5.4c0.4-2,0.8-4,1.2-6.2c0.4-2.1,0.7-4.2,1-6.3s0.5-4,0.6-5.8c0.2-1.8,0.2-3.3,0.2-4.6
			c0-4.6-0.3-8.1-1-10.2c-0.7-2.2-1.6-3.2-2.7-3.2c-0.4,0-0.7,0.2-1,0.5c-0.3,0.4-0.5,0.8-0.7,1.4c-0.2,0.6-0.3,1.2-0.4,1.8
			c-0.1,0.7-0.1,1.3-0.1,1.8V206.8z"/>
		<path d="M653.3,225.1c0.1-0.5,0.4-1,0.9-1.4c0.5-0.4,1.1-0.6,1.8-0.8s1.4-0.1,2.2,0s1.4,0.4,2,0.9s1,1.1,1.2,2
			c0.3,0.8,0.2,1.9-0.1,3.2c-0.4,1.9-1.1,3.7-2,5.4c-0.9,1.7-2.1,3.1-3.5,4.4c-1.4,1.3-3.1,2.3-5,3c-1.9,0.7-4.1,1.1-6.4,1.1
			c-1.3,0-2.5-0.1-3.6-0.2s-2.2-0.4-3.2-0.8c-1.7,3-4,5.4-6.7,7.3s-6.1,2.8-10.1,2.8c-3.6,0-6.6-0.7-9.2-2.1
			c-2.6-1.4-4.7-3.3-6.4-5.7c-1.7-2.4-2.9-5.2-3.7-8.3s-1.2-6.5-1.2-10c0-5.1,0.6-9.8,1.8-13.8c1.2-4.1,2.6-7.5,4.2-10.4
			c1.6-2.8,3.2-5,4.8-6.5s2.7-2.3,3.5-2.3c0.9,0,1.7,0.4,2.5,1.2c0.8,0.8,1.3,1.7,1.6,2.8c0.3,1.1,0.4,2.2,0.3,3.2s-0.7,1.9-1.6,2.5
			c-0.5,0.9-1.2,1.9-1.9,3c-0.8,1.1-1.5,2.6-2.1,4.3s-1.2,3.8-1.7,6.3c-0.5,2.5-0.7,5.4-0.7,8.9c0,3,0.3,5.5,0.8,7.7s1.3,4,2.2,5.5
			c0.9,1.5,2,2.6,3.2,3.3c1.2,0.7,2.5,1.1,3.9,1.1c2,0,3.7-0.5,5-1.5c1.3-1,2.4-2.3,3.3-3.9c-3.3-2.8-5.8-6.4-7.5-10.8
			c-1.7-4.4-2.6-9.1-2.6-14.1c0-2.2,0.2-4.3,0.7-6.3s1.2-3.7,2.1-5.2s2.1-2.7,3.5-3.6c1.4-0.9,3.1-1.3,4.9-1.3
			c1.6,0,3.2,0.6,4.6,1.8c1.5,1.2,2.7,2.8,3.8,4.9c1.1,2.1,1.9,4.6,2.6,7.5s0.9,6,0.9,9.4c0,2.6-0.2,5.2-0.5,7.7
			c-0.3,2.6-0.8,5-1.5,7.4c0.5,0.2,1,0.3,1.4,0.3c0.4,0,0.9,0,1.4,0c1.5,0,2.8-0.3,4-0.8s2.2-1.3,3-2.2c0.8-0.9,1.5-2,2-3.2
			C652.7,227.8,653.1,226.5,653.3,225.1z M626.6,212.1c0,3.1,0.5,6.1,1.5,9c1,2.8,2.3,5.3,3.9,7.4c0.3-2.2,0.4-4.4,0.4-6.4
			c0-2.4,0-4.6-0.1-6.6c-0.1-2-0.2-3.8-0.5-5.2c-0.3-1.5-0.6-2.6-1-3.5c-0.4-0.8-1-1.3-1.7-1.3C627.4,205.5,626.6,207.7,626.6,212.1
			z"/>
		<path d="M675.7,252.1c-3.1,0-6.1-0.6-9-1.7c-2.9-1.1-5.5-2.8-7.8-5.1c-2.3-2.2-4.1-5-5.4-8.3s-2-7.1-2-11.4c0-4,0.6-8,1.7-11.8
			c1.1-3.9,2.7-7.3,4.7-10.4c2-3,4.4-5.5,7.2-7.3c2.8-1.9,5.9-2.8,9.2-2.8c2.4,0,4.5,0.5,6.2,1.5c1.7,1,3.1,2.2,4.1,3.6
			c1,1.4,1.8,2.9,2.3,4.5c0.5,1.6,0.7,3,0.7,4.2c0,0.9-0.2,1.7-0.7,2.5c-0.5,0.7-1.1,1.3-1.7,1.8c-0.7,0.5-1.4,0.9-2.3,1.1
			c-0.8,0.3-1.6,0.4-2.2,0.3c-0.6,0-1.2-0.3-1.5-0.7s-0.5-1-0.4-1.8c-0.2-0.6-0.4-1.3-0.5-2.2c-0.2-0.9-0.4-1.7-0.8-2.5
			c-0.4-0.8-0.9-1.5-1.6-2.1c-0.7-0.6-1.6-0.9-2.8-0.9c-1.3,0-2.5,0.6-3.7,1.8c-1.2,1.2-2.3,2.9-3.2,5c-0.9,2.1-1.7,4.5-2.3,7.3
			c-0.6,2.8-0.9,5.7-0.9,8.9c0,2.8,0.4,5.2,1.1,7.4c0.7,2.1,1.7,3.9,3,5.4c1.3,1.5,2.8,2.6,4.5,3.3s3.7,1.1,5.7,1.1
			c2.7,0,5.1-0.5,7.1-1.5s3.7-2.4,5.2-4.1c1.4-1.7,2.6-3.6,3.4-5.7c0.9-2.1,1.5-4.2,1.9-6.4c0.3-1.5,1-2.6,1.9-3.1
			c1-0.5,2-0.6,3-0.4s1.9,0.9,2.7,1.7s1.1,1.9,0.9,3.2c-0.2,1.4-0.5,3-1,4.9c-0.5,1.8-1.2,3.7-2.1,5.5c-0.9,1.9-2.1,3.7-3.5,5.5
			c-1.4,1.8-3.1,3.4-5.1,4.8c-2,1.4-4.3,2.6-7,3.4C682.2,251.7,679.1,252.1,675.7,252.1z"/>
		<path d="M694.9,161.9c0-1-0.1-1.8-0.2-2.4c-0.2-0.6-0.3-1.1-0.5-1.4s-0.3-0.6-0.5-0.8s-0.2-0.4-0.2-0.6c0-0.3,0.1-0.5,0.4-0.7
			c0.3-0.2,0.6-0.3,1.1-0.5c0.5-0.1,0.9-0.2,1.5-0.3s1-0.1,1.5-0.1c2.3,0,4.2,0.6,5.5,1.8c1.3,1.2,2,2.7,2,4.3v43.7
			c1.1-1.5,2.3-3,3.6-4.4c1.3-1.4,2.6-2.6,3.9-3.7c1.4-1.1,2.8-1.9,4.3-2.6c1.5-0.6,3-1,4.6-1c2.2,0,4.1,0.4,5.6,1.3
			c1.5,0.8,2.8,2,3.9,3.4c1,1.4,1.8,3,2.3,4.8c0.5,1.8,0.7,3.7,0.7,5.6c0,2.7-0.4,5.2-1.3,7.6c-0.9,2.3-2,4.5-3.3,6.4
			c-1.3,1.9-2.8,3.6-4.3,5.1s-3.1,2.8-4.5,3.8c0.3,1.5,0.8,3,1.3,4.3c0.6,1.4,1.3,2.6,2.1,3.7s1.8,2,2.8,2.6c1.1,0.6,2.3,1,3.7,1
			c1.6,0,3.1-0.5,4.5-1.5c1.4-1,2.6-2.2,3.7-3.7c1.1-1.5,2-3.1,2.7-4.9c0.7-1.8,1.3-3.4,1.6-5c0.3-1.4,0.7-2.4,1.3-3.1
			c0.6-0.6,1.2-1,1.8-1.1s1.3,0.1,2,0.5s1.3,0.9,1.8,1.6c0.5,0.7,0.9,1.4,1.1,2.2s0.3,1.6,0.1,2.3c-0.6,1.9-1.6,4.1-2.7,6.6
			c-1.2,2.5-2.7,4.9-4.5,7.1c-1.8,2.2-4,4.1-6.4,5.7c-2.5,1.5-5.3,2.3-8.5,2.3c-2.7,0-5.2-0.7-7.5-2.1c-2.3-1.4-4.2-3.2-5.8-5.3
			c-1.6-2.1-2.9-4.5-3.7-7c-0.9-2.6-1.3-5-1.3-7.3c0-0.7,0.3-1.5,1-2.2c0.6-0.8,1.4-1.6,2.4-2.5s2-1.9,3.1-3s2.2-2.3,3.1-3.7
			s1.8-2.9,2.4-4.6c0.6-1.7,1-3.6,1-5.8c0-1.7-0.4-3.1-1.3-4.2s-1.9-1.6-3.2-1.6c-0.8,0-1.8,0.3-3,0.9s-2.4,1.7-3.7,3.2
			c-1.3,1.5-2.6,3.5-3.8,6c-1.3,2.5-2.5,5.6-3.6,9.3v24.1c0,0.7,0,1.4,0,2.1s-0.2,1.3-0.4,1.9c-0.3,0.6-0.6,1-1.2,1.4
			c-0.5,0.4-1.3,0.6-2.3,0.6c-0.7,0-1.4-0.1-2.2-0.2c-0.8-0.2-1.5-0.5-2.2-0.9c-0.7-0.4-1.2-1-1.6-1.8c-0.4-0.8-0.6-1.9-0.6-3.2
			V161.9z"/>
		<path d="M751.9,229c-0.4,1.5-1,2.4-2.1,2.7c-1,0.3-2,0.3-3-0.1s-1.8-1.1-2.5-2.1c-0.7-1-0.9-2.1-0.6-3.3c0.7-3.1,1.7-6.5,3-10.3
			s2.6-7.5,3.9-11.2c-0.7-1-1.2-2.1-1.6-3.2c-0.4-1.1-0.6-2.2-0.6-3.4c0-1.2,0.4-2.4,1.3-3.7s2-2.5,3.2-3.6s2.6-2,3.9-2.7
			c1.3-0.7,2.5-1.1,3.5-1.1c1.7,0,2.9,0.6,3.8,1.7c0.8,1.1,1.3,2.7,1.3,4.6c0,1-0.2,2.1-0.5,3.1s-0.7,2-1.1,2.9s-0.8,1.7-1.1,2.3
			c-0.3,0.6-0.5,1-0.6,1.2c1.6,2.9,3.3,5.5,5.1,7.7c1.8,2.2,3.4,4.4,4.9,6.6s2.7,4.5,3.7,7s1.4,5.4,1.4,8.7c0,0.8-0.1,1.7-0.2,2.5
			c-0.1,0.9-0.3,1.7-0.5,2.5c1.6-0.3,3.1-0.8,4.3-1.5s2.3-1.5,3.3-2.4s1.7-1.9,2.3-2.9c0.6-1,1.1-2.1,1.5-3.3c0.5-1.3,1-2.3,1.5-2.9
			c0.5-0.6,1.1-0.9,1.7-0.9c0.6,0,1.2,0.2,1.8,0.6c0.6,0.4,1.2,0.9,1.6,1.5c0.5,0.6,0.9,1.2,1.2,1.8c0.3,0.6,0.4,1.2,0.4,1.7
			c0,0.7-0.2,1.5-0.5,2.5c-0.4,1-0.9,1.9-1.5,2.9c-0.6,1-1.3,2-2.1,2.9c-0.8,0.9-1.6,1.7-2.4,2.4c-2.2,1.8-4.8,3.3-7.7,4.5
			c-3,1.2-6.6,2-11,2.3c-1.7,1.5-3.7,2.7-6,3.6c-2.3,0.9-4.9,1.4-7.8,1.4c-1.5,0-3-0.2-4.5-0.5c-1.5-0.4-3-0.8-4.4-1.4
			c-1.4-0.6-2.7-1.2-3.8-1.9c-1.1-0.7-2.1-1.4-2.7-2.1c-1.7-1.6-2.8-3.3-3.3-5c-0.5-1.7-0.6-3.2-0.4-4.5c0.3-1.3,0.7-2.4,1.5-3.2
			c0.7-0.8,1.5-1.3,2.3-1.3c0.5,0,1.2,0.2,2.2,0.6c1,0.4,2.1,0.9,3.4,1.5c1.3,0.6,2.7,1.3,4.2,1.9s3,1.3,4.5,1.9s3,1.1,4.4,1.5
			c1.4,0.4,2.7,0.6,3.9,0.6c0.8-0.9,1.5-2.1,2.1-3.6c0.6-1.5,1-3.1,1-4.9c0-2.2-0.3-4.2-0.9-6.1c-0.6-1.9-1.4-3.6-2.3-5.2
			c-1-1.6-2-3.1-3.2-4.5c-1.2-1.4-2.4-2.7-3.7-3.9c-1.1,2.7-2.1,5.3-2.9,8C753.6,222.7,752.8,225.7,751.9,229z"/>
	</g>
</g>
<polygon class="st3" points="-410,803 -417.5,803 -417.5,803 "/>
<polygon class="st3" points="-54.5,830 -51.5,830 -51.5,830 "/>
</svg>
